<svg id="visual" viewBox="0 0 450 900" xmlns="http://www.w3.org/2000/svg" xmlns:xlink="http://www.w3.org/1999/xlink" version="1.1" preserveAspectRatio="none"><rect x="0" y="0" width="450" height="900" fill="#F5F5F5"></rect><defs><linearGradient id="grad1_0" x1="0%" y1="100%" x2="100%" y2="0%"><stop offset="30%" stop-color="#f5f5f5" stop-opacity="1"></stop><stop offset="70%" stop-color="#f5f5f5" stop-opacity="1"></stop></linearGradient></defs><defs><linearGradient id="grad2_0" x1="0%" y1="100%" x2="100%" y2="0%"><stop offset="30%" stop-color="#f5f5f5" stop-opacity="1"></stop><stop offset="70%" stop-color="#f5f5f5" stop-opacity="1"></stop></linearGradient></defs><g transform="translate(450, 900)"><path d="M-180 0C-175.9 -32.6 -171.9 -65.2 -155.9 -90C-139.9 -114.8 -112 -131.8 -84 -145.5C-56 -159.2 -28 -169.6 0 -180L0 0Z" fill="#22A3B4"></path></g><g transform="translate(0, 0)"><path d="M180 0C178.1 36.3 176.1 72.6 155.9 90C135.6 107.4 97 105.9 68 117.8C39 129.6 19.5 154.8 0 180L0 0Z" fill="#22A3B4"></path></g></svg>